<svg xmlns="http://www.w3.org/2000/svg" viewBox="0 0 47 42">
  <path fill="#ef233c" d="M34.41 10.641h-9.248l-.299-2.685a4.096 4.096 0 0 0 2.785-3.878A4.033 4.033 0 0 0 23.57 0a3.95 3.95 0 0 0-3.978 4.078 4.127 4.127 0 0 0 2.586 3.779l-.298 2.784h-9.25a6.24 6.24 0 0 0-6.265 6.266v12.83a6.24 6.24 0 0 0 6.266 6.265h3.282v4.078a1.702 1.702 0 0 0 1.193 1.59 1.586 1.586 0 0 0 1.89-1.491v-.994a.364.364 0 0 1 .397-.398.455.455 0 0 1 .498.398v.994a1.702 1.702 0 0 0 1.193 1.591 1.586 1.586 0 0 0 1.89-1.492v-.994a.364.364 0 0 1 .398-.398.455.455 0 0 1 .497.398v.995a1.702 1.702 0 0 0 1.193 1.59 1.586 1.586 0 0 0 1.89-1.491v-.995a.364.364 0 0 1 .398-.397.455.455 0 0 1 .497.397l-.06.844a1.702 1.702 0 0 0 1.193 1.592 1.586 1.586 0 0 0 1.89-1.492l.06-3.927h3.282a6.24 6.24 0 0 0 6.265-6.266V16.907a5.899 5.899 0 0 0-6.066-6.266ZM15.416 31.527a4.873 4.873 0 1 1 4.873-4.874 4.818 4.818 0 0 1-4.873 4.874Zm9.946 2.685H21.88c-.398 0-.597-.398-.398-.796l1.79-3.083a.56.56 0 0 1 .895 0l1.79 3.083c0 .398-.199.796-.596.796Zm6.365-2.685a4.873 4.873 0 1 1 4.873-4.874 4.818 4.818 0 0 1-4.873 4.874ZM4.973 28.245a.769.769 0 0 1-.796.696A5.304 5.304 0 0 1 0 23.57 5.304 5.304 0 0 1 4.177 18.2a.705.705 0 0 1 .796.696ZM42.168 28.245c0 .397.398.795.696.696a5.304 5.304 0 0 0 4.177-5.37 5.304 5.304 0 0 0-4.177-5.371c-.398-.1-.696.298-.696.696Z" />
</svg>
